<svg width="36" height="40" viewBox="0 0 36 40" fill="none" xmlns="http://www.w3.org/2000/svg">
<mask id="mask0_1727_71" style="mask-type:luminance" maskUnits="userSpaceOnUse" x="0" y="0" width="36" height="40">
<path d="M0 0.950684H36V39.0493H0V0.950684Z" fill="white"/>
</mask>
<g mask="url(#mask0_1727_71)">
<path d="M35.851 7.27764L34.5564 27.606L22.1791 0.950684L35.851 7.27764ZM27.278 33.5633L17.9256 38.8997L8.573 33.5633L10.4752 28.9534H25.3758L27.278 33.5633ZM17.9256 11.0686L22.8263 22.983H13.0247L17.9256 11.0686ZM1.28131 27.606L0 7.27764L13.6719 0.950684L1.28131 27.606Z" fill="#5A8E61"/>
<path d="M35.851 7.27764L34.5564 27.606L22.1791 0.950684L35.851 7.27764ZM27.278 33.5633L17.9256 38.8997L8.573 33.5633L10.4752 28.9534H25.3758L27.278 33.5633ZM17.9256 11.0686L22.8263 22.983H13.0247L17.9256 11.0686ZM1.28131 27.606L0 7.27764L13.6719 0.950684L1.28131 27.606Z" fill="#5A8E61"/>
</g>
</svg>
