<svg width="36" height="36" viewBox="0 0 36 36" fill="none" xmlns="http://www.w3.org/2000/svg">
<g clip-path="url(#clip0_1727_103)">
<path fill-rule="evenodd" clip-rule="evenodd" d="M30.24 0H0V30.24C0 31.7676 0.606855 33.2327 1.68706 34.3129C2.76727 35.3931 4.23235 36 5.76 36H30.24C31.7676 36 33.2327 35.3931 34.3129 34.3129C35.3931 33.2327 36 31.7676 36 30.24V5.76C36 4.23235 35.3931 2.76727 34.3129 1.68706C33.2327 0.606855 31.7676 0 30.24 0ZM9.17995 29.4196C9.15259 31.8157 10.5793 33.1179 12.8916 33.12H12.8912C15.4252 33.1513 16.9142 31.3841 16.7328 28.8616H14.0788C14.0997 29.3562 14.0594 30.0402 13.8006 30.3491C13.6152 30.6094 13.3426 30.7397 12.9841 30.7397C12.2169 30.7275 11.8335 30.1695 11.8335 29.0661V23.8036C11.8335 23.2211 11.917 22.7808 12.0841 22.4835C12.3559 21.9352 13.3837 21.8733 13.7728 22.3999C14.0724 22.6905 14.0994 23.4619 14.0792 23.9713H16.7331C16.8022 22.675 16.5114 21.2857 15.7402 20.6057C14.4889 19.2813 11.5246 19.3561 10.247 20.587C9.53563 21.2191 9.17995 22.1429 9.17995 23.3575V29.4196ZM17.6796 28.8616C17.6086 31.3323 18.7549 33.1553 21.317 33.12L21.3166 33.1193C24.8702 33.2694 25.8631 29.3353 24.4159 26.7599C23.9306 25.9146 22.5921 25.2162 21.5395 24.8073C20.7266 24.4332 20.3778 24.066 20.3702 23.1711C20.3702 22.3283 20.7226 21.9067 21.4279 21.9067C21.8235 21.9067 22.0928 22.0371 22.235 22.2973C22.438 22.6048 22.4874 23.4483 22.4668 23.971H24.8796C24.9382 22.6991 24.6355 21.3171 23.9425 20.6147C22.8189 19.2521 19.8874 19.3133 18.765 20.6424C17.6097 21.7195 17.5334 24.3778 18.3567 25.5888C18.7218 26.1346 19.3186 26.6055 20.1477 27.0022C20.2591 27.0579 20.3896 27.1187 20.5299 27.1841C21.121 27.4597 21.8865 27.8165 22.1335 28.2107C22.5709 28.7172 22.5136 30.0262 22.2076 30.4794C22.0467 30.7275 21.7681 30.8513 21.3724 30.8513C20.4854 30.9197 20.1153 29.9387 20.1848 28.8616H17.6796ZM25.7709 28.8616C25.7 31.3323 26.8462 33.1553 29.4084 33.12L29.408 33.1193C32.9616 33.2694 33.9544 29.3353 32.5072 26.7599C32.022 25.9146 30.6835 25.2162 29.6308 24.8073C28.818 24.4332 28.4691 24.066 28.4616 23.1711C28.4616 22.3283 28.814 21.9067 29.5192 21.9067C29.9149 21.9067 30.1842 22.0371 30.3264 22.2973C30.5294 22.6048 30.5787 23.4483 30.5582 23.971H32.9709C33.0296 22.6991 32.7268 21.3171 32.0338 20.6147C30.9103 19.2521 27.9788 19.3133 26.8563 20.6424C25.7011 21.7195 25.6248 24.3778 26.4481 25.5888C26.8131 26.1346 27.41 26.6055 28.2391 27.0022C28.3505 27.0579 28.481 27.1187 28.6213 27.1841C29.2124 27.4597 29.9778 27.8165 30.2248 28.2107C30.6622 28.7172 30.605 30.0262 30.299 30.4794C30.1381 30.7275 29.8594 30.8513 29.4638 30.8513C28.5768 30.9197 28.2067 29.9387 28.2762 28.8616H25.7709Z" fill="#5A8E61"/>
</g>
<defs>
<clipPath id="clip0_1727_103">
<rect width="36" height="36" fill="white"/>
</clipPath>
</defs>
</svg>
