<svg width="30" height="38" viewBox="0 0 30 38" fill="none" xmlns="http://www.w3.org/2000/svg">
<path d="M13.8601 0.79541V10.682C13.195 10.4117 11.7597 10.3787 11.0524 10.3787C5.73178 10.3787 0.806519 12.8819 0.806519 19.9621C0.806519 28.4337 7.47757 29.5454 11.9434 29.5454C13.7067 29.5454 17.6934 29.3713 19.6101 28.8154V0.79541H13.8601ZM23.4434 0.79541V6.54541H29.1934V0.79541H23.4434ZM23.4434 10.3787V27.056C23.4434 29.9617 21.6762 32.9862 17.6934 34.7227L23.1739 37.2046C28.7437 35.2879 29.1934 28.9727 29.1934 27.056V10.3787H23.4434ZM11.8872 15.2677C12.5006 15.2677 13.1892 15.3802 13.8601 15.5335V24.5479C13.1892 24.7012 12.5006 24.8174 11.8872 24.8174C9.37641 24.8174 6.9421 24.0254 6.9421 19.9621C6.9421 15.8987 9.37641 15.2677 11.8872 15.2677Z" fill="#5A8E61"/>
</svg>
