<svg width="44" height="44" viewBox="0 0 44 44" fill="none" xmlns="http://www.w3.org/2000/svg">
<path d="M42.0495 19.3227L24.6773 1.95056C23.9406 1.21024 22.9703 0.840088 22 0.840088C21.0297 0.840088 20.0593 1.21024 19.3226 1.95056L15.887 5.38618L20.1384 9.63759C21.5507 8.80743 23.3907 8.98712 24.6018 10.1982C25.8129 11.4093 25.989 13.2493 25.1589 14.6581L29.3384 18.8376C30.7507 18.0074 32.5907 18.1871 33.8018 19.3982C35.2393 20.8357 35.2393 23.1645 33.8018 24.602C32.3643 26.0395 30.0356 26.0395 28.5981 24.602C27.387 23.3909 27.2073 21.5509 28.0375 20.1385L23.8579 15.959C23.5597 16.1351 23.247 16.2645 22.92 16.3471V27.6495C24.5048 28.0592 25.68 29.4859 25.68 31.2001C25.68 33.2341 24.034 34.8801 22 34.8801C19.9659 34.8801 18.32 33.2341 18.32 31.2001C18.32 29.4859 19.4951 28.0592 21.08 27.6495V16.3471C20.4654 16.189 19.8797 15.8835 19.3981 15.402C18.187 14.1909 18.0109 12.3509 18.8411 10.9421L14.5861 6.68712L1.95043 19.3227C0.46981 20.7998 0.46981 23.2004 1.95043 24.6774L19.3226 42.0496C20.0593 42.7899 21.0297 43.1601 22 43.1601C22.9703 43.1601 23.9406 42.7899 24.6773 42.0496L42.0495 24.6774C43.5301 23.2004 43.5301 20.7998 42.0495 19.3227Z" fill="#5A8E61"/>
</svg>
