<svg width="22" height="22" viewBox="0 0 22 22" fill="none" xmlns="http://www.w3.org/2000/svg">
<rect x="0.5" y="0.5" width="21" height="21" rx="3.5" fill="#5A8E61"/>
<path d="M5.43029 5.5C4.87029 6.7155 5.09644 7.73013 5.29567 8.28613C4.49175 9.08613 4 10.1883 4 11.6562C4 15.2898 6.47154 16.5 11 16.5C15.5285 16.5 18 15.2898 18 11.6562C18.0005 10.2382 17.4802 9.13238 16.6381 8.31738C16.7587 8.13338 16.9241 7.77425 16.9241 7.09375C16.9241 6.07025 16.5539 5.5 16.5539 5.5C15.9783 5.5 14.6256 5.71552 13.5072 6.74902C12.713 6.56552 11.8664 6.5 11.0011 6.5C10.1535 6.5 9.32347 6.54315 8.54432 6.70215C8.49424 6.65915 7.10113 5.5 5.43029 5.5ZM8.3098 10.25C9.01141 10.257 10.1691 10.4995 11.0011 10.5C11.833 10.4995 12.9896 10.257 13.6913 10.25C15.0493 10.25 15.8451 11.2513 15.8451 12.4863C15.8451 14.5123 14.5834 15.4995 11.0021 15.5H11.0011H10.9989C7.41764 15.4995 6.15595 14.5123 6.15595 12.4863C6.15595 11.2513 6.9518 10.25 8.3098 10.25ZM8.57587 12C8.36166 12 8.15622 12.1054 8.00475 12.2929C7.85328 12.4804 7.76818 12.7348 7.76818 13C7.76818 13.2652 7.85328 13.5196 8.00475 13.7071C8.15622 13.8946 8.36166 14 8.57587 14C8.79008 14 8.99552 13.8946 9.147 13.7071C9.29847 13.5196 9.38356 13.2652 9.38356 13C9.38356 12.7348 9.29847 12.4804 9.147 12.2929C8.99552 12.1054 8.79008 12 8.57587 12ZM13.422 12C13.2078 12 13.0024 12.1054 12.8509 12.2929C12.6994 12.4804 12.6143 12.7348 12.6143 13C12.6143 13.2652 12.6994 13.5196 12.8509 13.7071C13.0024 13.8946 13.2078 14 13.422 14C13.6362 14 13.8417 13.8946 13.9931 13.7071C14.1446 13.5196 14.2297 13.2652 14.2297 13C14.2297 12.7348 14.1446 12.4804 13.9931 12.2929C13.8417 12.1054 13.6362 12 13.422 12Z" fill="#FBFDF2"/>
</svg>
