<svg width="22" height="22" viewBox="0 0 22 22" fill="none" xmlns="http://www.w3.org/2000/svg">
<g clip-path="url(#clip0_1716_34)">
<rect x="3" y="4" width="16" height="15" fill="#FBFDF2"/>
<path d="M19 0.5H3C1.62 0.5 0.5 1.62 0.5 3V19C0.5 20.38 1.62 21.5 3 21.5H19C20.38 21.5 21.5 20.38 21.5 19V3C21.5 1.62 20.38 0.5 19 0.5ZM7 8.5V18H4V8.5H7ZM4 5.735C4 5.035 4.6 4.5 5.5 4.5C6.4 4.5 6.965 5.035 7 5.735C7 6.435 6.44 7 5.5 7C4.6 7 4 6.435 4 5.735ZM18 18H15C15 18 15 13.37 15 13C15 12 14.5 11 13.25 10.98H13.21C12 10.98 11.5 12.01 11.5 13C11.5 13.455 11.5 18 11.5 18H8.5V8.5H11.5V9.78C11.5 9.78 12.465 8.5 14.405 8.5C16.39 8.5 18 9.865 18 12.63V18Z" fill="#5A8E61"/>
</g>
<defs>
<clipPath id="clip0_1716_34">
<rect width="21" height="21" fill="white" transform="translate(0.5 0.5)"/>
</clipPath>
</defs>
</svg>
