<svg width="42" height="42" viewBox="0 0 42 42" fill="none" xmlns="http://www.w3.org/2000/svg">
<path d="M5.03999 3.36011C4.11599 3.36011 3.35999 4.11611 3.35999 5.04011V36.9601C3.35999 37.8841 4.11599 38.6401 5.03999 38.6401H36.96C37.884 38.6401 38.64 37.8841 38.64 36.9601V5.04011C38.64 4.11611 37.884 3.36011 36.96 3.36011H5.03999ZM24.36 11.7601C29.4588 11.7601 33.6 15.9013 33.6 21.0001C33.6 26.0989 29.4588 30.2401 24.36 30.2401H20.16H16.38C11.9784 30.2401 8.39999 26.6617 8.39999 22.2601C8.39999 17.8585 11.9784 14.2801 16.38 14.2801C16.8924 14.2801 17.3874 14.3304 17.8746 14.4228C19.5462 12.7764 21.8316 11.7601 24.36 11.7601ZM24.36 13.4401C22.6296 13.4401 20.9755 14.0287 19.6399 15.0955C20.1859 15.3727 20.6969 15.7088 21.1673 16.07C22.1081 15.4484 23.2092 15.1201 24.36 15.1201C27.6024 15.1201 30.24 17.7577 30.24 21.0001C30.24 24.2425 27.6024 26.8801 24.36 26.8801C21.7476 26.8801 19.9424 24.9062 18.0272 22.8146C17.54 22.277 17.0528 21.7469 16.5572 21.2429C16.2296 20.9153 15.6904 20.9153 15.3628 21.2429C15.0352 21.5705 15.0352 22.1097 15.3628 22.4373C15.85 22.9161 16.3214 23.4359 16.7918 23.9483L17.6728 24.9064C18.7228 26.0236 19.8323 27.0725 21.1427 27.7529C22.0919 28.2485 23.1504 28.5601 24.36 28.5601C28.5264 28.5601 31.92 25.1665 31.92 21.0001C31.92 16.8337 28.5264 13.4401 24.36 13.4401ZM16.38 15.9601C12.9024 15.9601 10.08 18.7825 10.08 22.2601C10.08 25.7377 12.9024 28.5601 16.38 28.5601C17.1696 28.5601 17.943 28.4175 18.6654 28.1319C18.1278 27.7119 17.6309 27.2582 17.1773 26.8046C16.9169 26.855 16.6488 26.8801 16.38 26.8801C13.8348 26.8801 11.76 24.8053 11.76 22.2601C11.76 19.7149 13.8348 17.6401 16.38 17.6401C18.2952 17.6401 19.9083 19.3277 21.3363 20.8229C21.5967 21.0917 21.8392 21.3537 22.0828 21.5973C22.4104 21.9249 22.9496 21.9249 23.2772 21.5973C23.6048 21.2697 23.6048 20.7305 23.2772 20.4029C23.042 20.1677 22.7973 19.9166 22.5537 19.6646C21.8817 18.9506 21.1345 18.1772 20.2945 17.522C19.9081 17.2112 19.5041 16.9352 19.0673 16.7C18.2525 16.2464 17.3628 15.9601 16.38 15.9601Z" fill="#5A8E61"/>
</svg>
