<svg width="38" height="38" viewBox="0 0 38 38" fill="none" xmlns="http://www.w3.org/2000/svg">
<path d="M34.4079 1.76643C34.2654 1.60908 34.0606 1.52002 33.8468 1.52002H4.1534C3.93965 1.52002 3.73481 1.60908 3.59231 1.76643C3.44684 1.92377 3.37559 2.13455 3.39637 2.3483L6.07121 32.3119C6.09793 32.6266 6.31762 32.8878 6.62043 32.9769L18.7893 36.4503C18.8546 36.4711 18.9259 36.48 18.9971 36.48C19.0684 36.48 19.1367 36.4711 19.205 36.4503L31.3828 32.9769C31.6856 32.8878 31.9023 32.6266 31.932 32.3119L34.6039 2.3483C34.6246 2.13455 34.5534 1.92377 34.4079 1.76643ZM28.0043 12.0977H13.7068L14.0482 15.966H27.66L26.6387 27.3986L18.9942 29.7083L18.92 29.6846L11.3645 27.3956L10.9518 22.7377H14.6539L14.8142 24.5456L19.0387 25.4303L23.1861 24.5456L23.6284 19.6531H10.6757L9.66934 8.40158H28.3339L28.0043 12.0977Z" fill="#5A8E61"/>
</svg>
