<svg width="34" height="32" viewBox="0 0 34 32" fill="none" xmlns="http://www.w3.org/2000/svg">
<path d="M20 0.24L21.2 0.506667L22.1734 0.853333L22.96 1.25333L23.56 1.68L24.0134 2.13333L24.3467 2.58667L24.56 3.02667L24.6934 3.42667L24.7467 3.77333L24.7734 4.04L24.76 4.21333V11.3333L24.6934 12.1733L24.52 12.9067L24.24 13.52L23.8934 14.0267L23.4934 14.44L23.0534 14.7733L22.5867 15.0267L22.12 15.2133L21.68 15.3467L21.28 15.44L20.9334 15.4933L20.6534 15.52H12.6934L11.7734 15.5867L10.9867 15.7733L10.32 16.0667L9.77338 16.4267L9.33338 16.8533L8.97338 17.32L8.70671 17.8L8.50671 18.2933L8.37338 18.76L8.28004 19.1867L8.22671 19.5467L8.20004 19.8267V23.9067H5.22671L4.94671 23.8667L4.57338 23.7733L4.14671 23.6133L3.68004 23.3733L3.20004 23.0267L2.72004 22.5467L2.25338 21.9333L1.82671 21.1467L1.45338 20.1733L1.17338 19L0.986711 17.6L0.920044 15.96L1.00004 14.3333L1.21338 12.9467L1.53338 11.7867L1.96004 10.84L2.44004 10.08L2.97338 9.49333L3.53338 9.05333L4.09338 8.73333L4.62671 8.52L5.10671 8.38667L5.53338 8.32L5.85338 8.30667H6.06671L6.14671 8.32H17.0267V7.21333H9.24004L9.22671 3.54667L9.20004 3.05333L9.26671 2.6L9.41338 2.18667L9.64004 1.81333L9.97338 1.46667L10.3867 1.16L10.8934 0.893333L11.48 0.653333L12.16 0.453333L12.9334 0.293333L13.7867 0.16L14.7334 0.08L15.76 0.0266667L16.88 0L18.5734 0.0666667L20 0.24ZM11.6 2.88L11.2934 3.32L11.1867 3.86667L11.2934 4.41333L11.6 4.86667L12.04 5.16L12.5867 5.28L13.1334 5.16L13.5734 4.86667L13.88 4.41333L13.9867 3.86667L13.88 3.32L13.5734 2.88L13.1334 2.58667L12.5867 2.46667L12.04 2.58667L11.6 2.88ZM29.0534 8.14667L29.4267 8.22667L29.8534 8.38667L30.32 8.62667L30.8 8.98667L31.28 9.45333L31.7467 10.08L32.1734 10.8667L32.5467 11.84L32.8267 13.0133L33.0134 14.4L33.08 16.04L33 17.68L32.7867 19.0667L32.4667 20.2133L32.04 21.16L31.56 21.92L31.0267 22.52L30.4667 22.96L29.9067 23.28L29.3734 23.4933L28.8934 23.6133L28.4667 23.68L28.1467 23.7067L27.9334 23.6933H16.9734V24.7867H24.76L24.7734 28.4667L24.8 28.9467L24.7334 29.4L24.5867 29.8133L24.36 30.2L24.0267 30.5333L23.6134 30.8533L23.1067 31.12L22.52 31.3467L21.84 31.5467L21.0667 31.72L20.2134 31.84L19.2667 31.9333L18.24 31.9867L17.12 32L15.4267 31.9467L14 31.76L12.8 31.4933L11.8267 31.16L11.04 30.76L10.44 30.32L9.98671 29.8667L9.65338 29.4133L9.44004 28.9733L9.30671 28.5733L9.25338 28.24L9.22671 27.9733L9.24004 27.8V20.68L9.30671 19.8267L9.48004 19.1067L9.76004 18.4933L10.1067 17.9867L10.5067 17.56L10.9467 17.24L11.4134 16.9733L11.88 16.7867L12.32 16.6533L12.72 16.5733L13.0667 16.52L13.3467 16.4933L13.52 16.48H21.3067L22.2267 16.4133L23.0134 16.2267L23.68 15.9467L24.2267 15.5733L24.6667 15.1467L25.0267 14.68L25.2934 14.2L25.4934 13.72L25.6267 13.2533L25.72 12.8267L25.7734 12.4533L25.8 12.1733V8.09333H28.5867L28.7734 8.10667L29.0534 8.14667ZM20.4267 27.1467L20.12 27.5867L20.0134 28.1333L20.12 28.68L20.4267 29.12L20.8667 29.4267L21.4134 29.5333L21.96 29.4267L22.4 29.12L22.7067 28.68L22.8134 28.1333L22.7067 27.5867L22.4 27.1467L21.96 26.84L21.4134 26.7333L20.8667 26.84L20.4267 27.1467Z" fill="#5A8E61"/>
</svg>
