<svg width="46" height="36" viewBox="0 0 46 36" fill="none" xmlns="http://www.w3.org/2000/svg">
<path d="M39.5876 20.5787C37.9803 20.587 36.5875 20.9734 35.42 21.5484C34.9931 20.6964 34.5607 19.9466 34.488 19.3891C34.4034 18.7387 34.3049 18.3504 34.4071 17.5749C34.5092 16.7993 34.9581 15.7018 34.9508 15.6199C34.9443 15.538 34.8505 15.1433 33.9231 15.136C32.9958 15.1295 32.2027 15.3144 32.1089 15.5592C32.0151 15.8039 31.8366 16.355 31.7262 16.93C31.5633 17.7708 29.8751 20.77 28.9156 22.3386C28.6019 21.7259 28.3351 21.1868 28.2799 20.7599C28.1952 20.1095 28.0968 19.7212 28.1989 18.9457C28.301 18.1701 28.75 17.0726 28.7426 16.9907C28.7362 16.9088 28.6423 16.5141 27.715 16.5068C26.7876 16.5003 25.9946 16.6852 25.9007 16.93C25.8069 17.1747 25.7075 17.7469 25.518 18.3008C25.3276 18.8546 23.0828 23.8566 22.4949 25.1529C22.195 25.8135 21.9346 26.3443 21.7506 26.7068L21.7497 26.705C21.7497 26.705 21.7387 26.7289 21.7184 26.7703C21.5611 27.0785 21.4673 27.2496 21.4673 27.2496C21.4673 27.2496 21.4682 27.2524 21.47 27.256C21.3449 27.4824 21.2115 27.693 21.1453 27.693C21.0993 27.693 21.0063 27.0895 21.1655 26.2624C21.4995 24.5273 22.3017 21.8207 22.2943 21.7278C22.2907 21.6799 22.4434 21.2089 21.7699 20.9614C21.1158 20.7222 20.8821 21.1215 20.8223 21.1224C20.7644 21.1233 20.7211 21.2632 20.7211 21.2632C20.7211 21.2632 21.4507 18.2198 19.3301 18.2198C18.0053 18.2198 16.169 19.6697 15.2637 20.9835C14.6933 21.2944 13.4715 21.9614 12.1753 22.6735C11.6775 22.9468 11.1697 23.2264 10.6876 23.4923C10.6545 23.4564 10.6223 23.4196 10.5883 23.3838C8.01779 20.6412 3.26691 18.7019 3.46839 15.0154C3.54199 13.675 4.00751 10.1459 12.5985 5.86512C19.6355 2.35808 25.2696 3.32316 26.243 5.46216C27.634 8.51748 23.2318 14.1966 15.9243 15.0154C13.1394 15.3273 11.6739 14.2482 11.3086 13.8461C10.925 13.4229 10.8679 13.4036 10.7244 13.4836C10.4907 13.6134 10.6389 13.9869 10.7244 14.2095C10.9425 14.7772 11.8376 15.7846 13.3648 16.285C14.708 16.7257 17.9768 16.9677 21.9309 15.4386C26.3589 13.7256 29.8163 8.96092 28.8015 4.97824C27.7683 0.927478 21.0523 -0.403763 14.6961 1.85392C10.913 3.19804 6.81811 5.3076 3.87319 8.06116C0.371667 11.3364 -0.185853 14.1865 0.0441468 15.377C0.862027 19.609 6.69391 22.3644 9.02979 24.4068C8.91479 24.4703 8.80623 24.5301 8.70779 24.5844C7.53663 25.164 3.09119 27.4906 1.97891 29.9489C0.717587 32.7374 2.17947 34.7384 3.14823 35.008C6.14743 35.8424 9.22575 34.341 10.8799 31.8735C12.5341 29.407 12.3317 26.1953 11.5727 24.7288C11.5635 24.7104 11.5524 24.6929 11.5432 24.6745C11.8459 24.4951 12.1541 24.3139 12.4595 24.1345C13.0557 23.7849 13.6408 23.4583 14.1487 23.1814C13.8644 23.9597 13.6565 24.8926 13.5479 26.2404C13.4209 27.8237 14.0695 29.8698 14.9187 30.6748C15.2922 31.029 15.7421 31.0372 16.0273 31.0372C17.0154 31.0372 17.4662 30.2157 17.9621 29.2432C18.5711 28.0509 19.1111 26.6636 19.1111 26.6636C19.1111 26.6636 18.4331 30.4126 20.2805 30.4126C20.953 30.4126 21.6301 29.5395 21.9319 29.0951C21.9328 29.0997 21.9328 29.1025 21.9328 29.1025C21.9328 29.1025 21.9503 29.074 21.9843 29.0151C22.0542 28.9084 22.0938 28.8403 22.0938 28.8403C22.0938 28.8403 22.0956 28.8329 22.0975 28.821C22.3679 28.3518 22.9678 27.2809 23.8675 25.5145C25.0295 23.2329 26.1445 20.3754 26.1445 20.3754C26.1445 20.3754 26.2485 21.0746 26.588 22.2292C26.7876 22.909 27.2127 23.6607 27.5475 24.381C27.278 24.7555 27.1124 24.9698 27.1124 24.9698C27.1124 24.9698 27.1142 24.9735 27.117 24.9809C26.9017 25.267 26.6597 25.5752 26.4067 25.877C25.4895 26.9699 24.3965 28.2174 24.2503 28.5781C24.0782 29.0022 24.1187 29.315 24.4517 29.5652C24.6946 29.7483 25.1279 29.7768 25.5806 29.7465C26.4049 29.6913 26.9854 29.4861 27.2715 29.3619C27.7177 29.2046 28.2375 28.9562 28.7251 28.5974C29.6249 27.9359 30.1677 26.9892 30.1162 25.7353C30.0877 25.0444 29.8669 24.3599 29.5881 23.7131C29.67 23.5954 29.7519 23.4776 29.8337 23.3571C31.2524 21.2825 32.3527 19.0036 32.3527 19.0036C32.3527 19.0036 32.4567 19.7028 32.7961 20.8574C32.9682 21.4426 33.3077 22.0801 33.6122 22.7057C32.2782 23.7895 31.4511 25.049 31.1631 25.8751C30.6323 27.4032 31.0481 28.096 31.8283 28.2533C32.1816 28.3251 32.6811 28.1632 33.0565 28.004C33.5239 27.8494 34.0851 27.5909 34.6095 27.2054C35.5092 26.544 36.3749 25.6175 36.3225 24.3636C36.2986 23.7932 36.144 23.2264 35.9343 22.6818C37.0649 22.2108 38.5296 21.9486 40.3944 22.1666C44.3955 22.634 45.1803 25.1318 45.0303 26.1769C44.8803 27.2229 44.0413 27.797 43.7607 27.9709C43.4801 28.1448 43.3945 28.2046 43.4185 28.3334C43.4525 28.521 43.5822 28.5137 43.8214 28.4732C44.1508 28.418 45.9218 27.6231 45.9981 25.693C46.0938 23.2476 43.746 20.5566 39.5876 20.5787ZM8.75103 30.9747C7.42623 32.42 5.57427 32.9665 4.78031 32.5065C3.92287 32.0097 4.26235 29.8808 5.88891 28.3472C6.87975 27.4124 8.15947 26.5513 9.00863 26.0205C9.20183 25.9046 9.48519 25.7334 9.83019 25.5264C9.88723 25.4942 9.91943 25.4758 9.91943 25.4758L9.91851 25.474C9.98475 25.4344 10.0537 25.393 10.1237 25.3507C10.7152 27.5348 10.1421 29.4576 8.75103 30.9747ZM18.4046 24.4114C17.9427 25.5366 16.9767 28.4152 16.3889 28.2607C15.8838 28.1282 15.5765 25.9395 16.2877 23.7867C16.6455 22.703 17.4101 21.4076 17.8599 20.9044C18.5831 20.0957 19.3798 19.8307 19.573 20.1592C19.8205 20.5768 18.6944 23.7058 18.4046 24.4114ZM26.381 28.2174C26.185 28.3196 26.0056 28.384 25.9228 28.3343C25.8612 28.2975 26.0038 28.1632 26.0038 28.1632C26.0038 28.1632 27.0011 27.0895 27.3948 26.601C27.623 26.3167 27.8889 25.9791 28.1768 25.6019C28.1796 25.6396 28.1805 25.6773 28.1805 25.7141C28.1768 27.0003 26.9348 27.8678 26.381 28.2174ZM32.5257 26.8163C32.3794 26.7123 32.4042 26.3765 32.8835 25.3314C33.0721 24.9211 33.5018 24.2292 34.2497 23.5687C34.3362 23.8401 34.3896 24.1004 34.3877 24.3433C34.3776 25.9616 33.223 26.566 32.5257 26.8163Z" fill="#5A8E61"/>
</svg>
